# xmcd
#
# Track frame offsets:
#	150
#	22828
#	39487
#	55678
#	80293
#	101645
#	120081
#	139968
#	157836
#	177187
#	198526
#	217675
#	237889
#	254921
#
# Disc length: 3671 seconds
# Revision: 0
# Processed by: cddbd v1.5.2PL0 Copyright (c) Steve Scherf et al.
# Submitted via: dBpowerAMP V12.0
#
DISCID=ad0e550e
DTITLE=P-Dub - The Biggest Little City
DYEAR=2002
DGENRE=Nevada Rap
TTITLE0=Introducing Myself
TTITLE1=The Legal Way (feat.Mr.Milticket and Young Peezy)
TTITLE2=Thoughts from The Mind (feat.Sandman and Sean T)
TTITLE3=To Whom It May Concern (feat.Maurice Tolliver)
TTITLE4=BUsta's
TTITLE5=Something New (feat.NaChelle Norman)
TTITLE6=Squattin'
TTITLE7=Let You Know (They call him P Dub) (feat.Tanya Jones)
TTITLE8=Something 2 Prove (feat.Shorty T)
TTITLE9=Leave Me Alone (feat.The Misses and Macadou)
TTITLE10=Ain't No Love (feat.Young Peezy)
TTITLE11=Same Hustla
TTITLE12=Is THere a Party?(feat. Young Peezy)
TTITLE13=The Biggest Little City
EXTD=
EXTT0=
EXTT1=
EXTT2=
EXTT3=
EXTT4=
EXTT5=
EXTT6=
EXTT7=
EXTT8=
EXTT9=
EXTT10=
EXTT11=
EXTT12=
EXTT13=
PLAYORDER=
